<svg id="ART" xmlns="http://www.w3.org/2000/svg" viewBox="0 0 850.68 123"><defs><style>.cls-1{fill:#007dc3;}.cls-2{fill:#fff;}</style></defs><title>wyndham-hotels-logo-color</title><path class="cls-1" d="M692.69,19.69H678.44L641.8,102.79h16.74l8.28-19.52H704l8.16,19.52h17.21ZM698,69H672.73l12.62-29.33Z"/><path class="cls-1" d="M502.44,20.3H471.51v82.47h30.93c27,0,43.8-18.25,43.8-41.37,0-20.21-14.41-41.1-43.8-41.1m0,67.83h-15V34.88h15c16.58,0,27.24,11.23,27.24,26.76,0,15.08-10.48,26.49-27.24,26.49"/><polygon class="cls-1" points="330.14 52.89 310.24 20.31 291.5 20.31 322.03 68.75 322.03 102.79 338.01 102.79 338.01 68.39 368.64 20.31 350.37 20.31 330.14 52.89"/><polygon class="cls-1" points="261 103.31 285.28 20.3 268.6 20.3 253.34 76.78 235.76 20.07 220.41 20.07 202.52 76.74 187.32 20.3 170.21 20.3 194.81 103.31 208.93 103.31 227.55 44.38 246.5 103.31 261 103.31"/><polygon class="cls-1" points="434.4 74.53 392.36 20.3 377.95 20.3 377.95 60.57 377.95 102.78 393.61 102.78 393.61 46.89 436.9 102.78 450.05 102.78 450.05 61.69 450.05 20.3 434.4 20.3 434.4 74.53"/><polygon class="cls-1" points="630.51 102.78 630.51 60.57 630.51 20.3 614.68 20.3 614.68 53.88 577.79 53.88 577.79 20.3 561.87 20.3 561.87 59.45 561.87 102.78 577.79 102.78 577.79 68.71 614.68 68.71 614.68 102.78 630.51 102.78"/><polygon class="cls-1" points="779.5 57.77 755.34 20.3 738.92 20.3 738.92 58.33 738.92 102.78 754.59 102.78 754.59 47 778.58 82.92 779.95 82.92 804.14 46.77 804.14 102.78 820.02 102.78 820.02 57.21 820.02 20.3 803.58 20.3 779.5 57.77"/><path class="cls-1" d="M831.39,30v-.05a9.64,9.64,0,0,1,19.29-.05v.05a9.64,9.64,0,0,1-19.29.05Zm18.18-.05V29.9a8.53,8.53,0,1,0-17.05.05V30a8.53,8.53,0,1,0,17.05-.05Zm-12.5-5.41h4.56a4.34,4.34,0,0,1,3.17,1.12,3.1,3.1,0,0,1,.85,2.24V28a3.18,3.18,0,0,1-2.21,3.17l2.51,3.68h-2.64l-2.19-3.31h-1.78v3.31h-2.26Zm4.52,5c1.15,0,1.76-.61,1.76-1.46V28c0-1-.7-1.5-1.82-1.5h-2.21v3Z"/><rect class="cls-1" width="133.39" height="123"/><path class="cls-2" d="M103.64,49.87c-3.59,0-7.79,1.4-11.4,7.16L69.65,92.55a1.72,1.72,0,0,0-.39.86,1.48,1.48,0,0,0,.39.83,7.74,7.74,0,0,0,6.24,3.16,7.56,7.56,0,0,0,6.56-3.75s17.75-28.09,20.08-31.86c3.18-5.09,4.25-6.58,7.12-6.58,1.13,0,1.4-.63,1.4-1.22C111,52.36,108.41,49.87,103.64,49.87Z"/><path class="cls-2" d="M67.11,57.11c.23-.36,4.62-7.13,7.73-12,2.77-4.35,4.73-5.73,8.3-6.34,1.05-.19,1.8-.65,1.8-1.64,0-2-3.86-5.36-8.56-5.36a1.9,1.9,0,0,1-1.92-1.23,8.54,8.54,0,0,0-8.16-4.94,8.57,8.57,0,0,0-8.16,4.94,1.88,1.88,0,0,1-1.89,1.23c-4.69,0-8.58,3.36-8.58,5.36,0,1,.77,1.45,1.84,1.64,3.56.62,5.5,2,8.28,6.34,3.11,4.85,7.47,11.62,7.72,12,.36.54.55.58.8.58S66.77,57.65,67.11,57.11Z"/><path class="cls-2" d="M33.33,45.29c0,.53.28,1,1.19,1,4.3,0,7,2.56,9.1,6s12.5,20.12,12.63,20.32a.79.79,0,0,0,.68.43.76.76,0,0,0,.7-.43c.16-.23,5.64-8.87,5.75-9a1,1,0,0,0,.2-.55,1,1,0,0,0-.17-.53c-.1-.17-6.7-10.55-8.68-13.6-3.87-6-8.68-8-13.2-8C35.51,40.84,33.33,44,33.33,45.29Z"/><path class="cls-2" d="M89.67,52.24c2.09-3.41,4.79-6,9.08-6,.92,0,1.2-.47,1.2-1,0-1.29-2.17-4.44-8.21-4.44-4.53,0-9.32,1.94-13.18,8-2,3-17.38,27.31-20.63,32.5a1,1,0,0,1-.8.62c-.4,0-.61-.23-.85-.62C49.67,71,40.83,57,40.83,57,37.2,51.27,33,49.87,29.41,49.87,24.63,49.87,22,52.36,22,54c0,.59.25,1.22,1.41,1.22,2.85,0,3.93,1.49,7.11,6.58,2.35,3.77,20.07,31.86,20.07,31.86a7.6,7.6,0,0,0,6.59,3.75,7.48,7.48,0,0,0,6.59-3.74C65.3,91.24,87.57,55.64,89.67,52.24Z"/></svg>