<svg xmlns="http://www.w3.org/2000/svg" width="747.568" height="744.764" viewBox="0 0 747.568 744.764">
  <g id="Grupo_9096" data-name="Grupo 9096" transform="translate(4859.362 1296.463)">
    <path id="Trazado_8" data-name="Trazado 8" d="M212.373,32.592c136.129-87.33,239.621-3.874,342.315,231.9s-144.855,257.553-290.339,220.1S12.557,381.452.5,264.49,76.244,119.921,212.373,32.592Z" transform="translate(-4774.409 -1170.308)" fill="rgba(0,0,0,0.92)"/>
    <path id="Trazado_9" data-name="Trazado 9" d="M199.881,27.683C331.72-67.108,426.337,15.554,514.494,255.522S368.035,526.377,232.035,492.641-1.907,394.683-8.913,274.321,68.042,122.475,199.881,27.683Z" transform="translate(-4521.67 -1282.283) rotate(41)" fill="#2d2d2d"/>
    <g id="Trazado_10" data-name="Trazado 10" transform="translate(-4292.313 -1245.778) rotate(74)" fill="#7c8800">
      <path d="M 328.2384948730469 543.1394653320312 C 311.4887390136719 543.1394653320312 294.3944396972656 541.9078979492188 277.4302673339844 539.4790649414062 C 261.1244201660156 537.1444702148438 245.2605895996094 533.7540893554688 230.2792053222656 529.4020385742188 C 213.5829620361328 524.5518798828125 197.5847320556641 519.2080078125 182.7288208007812 513.5184936523438 C 167.3127288818359 507.6145324707031 152.6639709472656 501.1614379882812 139.1895751953125 494.3385314941406 C 125.2468872070312 487.2785339355469 112.1476593017578 479.6129760742188 100.2558135986328 471.5549011230469 C 87.98027801513672 463.2369079589844 76.62981414794922 454.2557678222656 66.51973724365234 444.8610534667969 C 56.10458374023438 435.1828308105469 46.70104217529297 424.7825317382812 38.57019805908203 413.9490661621094 C 30.20804405212402 402.8072814941406 22.94850540161133 390.8828430175781 16.99319839477539 378.5067443847656 C 13.95481300354004 372.1925354003906 11.19065952301025 365.6253051757812 8.777582168579102 358.9875183105469 C 6.332813262939453 352.2627563476562 4.178813457489014 345.2741394042969 2.375351667404175 338.2159118652344 C 0.5488132834434509 331.0672302246094 -0.970109760761261 323.6437683105469 -2.13918662071228 316.1516723632812 C -3.322879076004028 308.5657653808594 -4.181571483612061 300.6938171386719 -4.691417694091797 292.7546081542969 C -6.368725299835205 266.6362915039062 -4.424032688140869 244.0834503173828 1.25396716594696 223.8075256347656 C 2.620505571365356 218.9274444580078 4.233505725860596 214.0949859619141 6.048197746276855 209.4442138671875 C 7.828890323638916 204.8805999755859 9.862582206726074 200.3412170410156 12.0928897857666 195.9521331787109 C 16.44589042663574 187.3857574462891 21.58158302307129 179.2326049804688 27.79358291625977 171.0267486572266 C 38.84465789794922 156.4284515380859 53.10250473022461 141.9826812744141 72.66381072998047 125.5649871826172 C 90.42942810058594 110.6543731689453 110.4250411987305 95.83890533447266 133.5779724121094 78.68405914306641 C 152.5787353515625 64.60567474365234 172.2263488769531 50.0479850769043 193.6200408935547 33.24275588989258 C 201.9525756835938 26.6973705291748 210.2565002441406 20.89883232116699 218.30126953125 16.00836944580078 C 226.3380432128906 11.12267780303955 234.3529663085938 6.999216079711914 242.1233520507812 3.752523899078369 C 249.8799743652344 0.5116007328033447 257.6216735839844 -1.951245427131653 265.1332702636719 -3.567553043365479 C 272.6268920898438 -5.179937839508057 280.1129760742188 -5.997476100921631 287.3836669921875 -5.997476100921631 C 292.3854370117188 -5.997476100921631 297.4089660644531 -5.611014842987061 302.3148803710938 -4.848860740661621 C 307.2107238769531 -4.088168621063232 312.1309814453125 -2.931322336196899 316.9388122558594 -1.410476207733154 C 321.7362060546875 0.1070622578263283 326.5603637695312 2.030985355377197 331.2771911621094 4.307754516601562 C 335.9828796386719 6.579139232635498 340.7176513671875 9.267215728759766 345.3500366210938 12.29744720458984 C 354.5718078613281 18.32983207702637 363.7962646484375 25.98683166503906 372.7673645019531 35.055908203125 C 381.673828125 44.05967712402344 390.6069030761719 54.73475646972656 399.3184204101562 66.78452301025391 C 407.9503479003906 78.72429656982422 416.6338195800781 92.38606262207031 425.1275939941406 107.3903732299805 C 433.5268859863281 122.2276763916016 442.0038757324219 138.8431396484375 450.3232727050781 156.7749786376953 C 458.5326538085938 174.4699096679688 466.8477478027344 194.0055236816406 475.037353515625 214.8392944335938 C 483.1001892089844 235.3502197265625 491.2982788085938 257.7727661132812 499.4039001464844 281.484130859375 C 503.2339782714844 292.68798828125 506.5533447265625 303.7289733886719 509.2698974609375 314.3004455566406 C 511.9252014160156 324.6334533691406 514.07666015625 334.7984619140625 515.6646118164062 344.5131530761719 C 517.2157592773438 354.0028991699219 518.2711181640625 363.31982421875 518.8014526367188 372.2051391601562 C 519.319091796875 380.8794555664062 519.350341796875 389.3764343261719 518.894287109375 397.4600524902344 C 518.4493408203125 405.3470764160156 517.5285034179688 413.0525207519531 516.1574096679688 420.3624572753906 C 514.8204345703125 427.4906921386719 513.01953125 434.43359375 510.8046569824219 440.9983825683594 C 508.6459655761719 447.3968200683594 506.0364990234375 453.6065368652344 503.0488891601562 459.4549865722656 C 500.1381225585938 465.153076171875 496.7911987304688 470.6590576171875 493.1011962890625 475.8201293945312 C 488.8199768066406 481.8082275390625 483.9552612304688 487.5022888183594 478.6423645019531 492.744384765625 C 473.4960327148438 497.8219909667969 467.7995910644531 502.6033630371094 461.7112121582031 506.9558410644531 C 450.0882873535156 515.2647705078125 436.6791076660156 522.2800903320312 421.8561096191406 527.8070068359375 C 407.9515075683594 532.991455078125 392.6588134765625 536.923583984375 376.4027404785156 539.494384765625 C 361.1079711914062 541.9130859375 344.9031982421875 543.1394653320312 328.2384948730469 543.1394653320312 Z" stroke="none"/>
      <path d="M 287.3836669921875 -5.497528076171875 C 280.1482543945312 -5.497528076171875 272.6975708007812 -4.683685302734375 265.2384948730469 -3.078765869140625 C 257.7567443847656 -1.468841552734375 250.0444946289062 0.9847412109375 242.316162109375 4.21380615234375 C 234.56884765625 7.450897216796875 226.576416015625 11.56289672851562 218.5610046386719 16.43557739257812 C 210.5332641601562 21.31573486328125 202.2458190917969 27.10272216796875 193.9289855957031 33.63589477539062 C 172.5297546386719 50.44546508789062 152.8792419433594 65.00531005859375 133.8756713867188 79.08572387695312 C 110.729248046875 96.2357177734375 90.73931884765625 111.0469665527344 72.98526000976562 125.9479064941406 C 53.45343017578125 142.3408203125 39.2200927734375 156.7608947753906 28.192138671875 171.3284912109375 C 21.99835205078125 179.5104064941406 16.87799072265625 187.6389770507812 12.53857421875 196.1786499023438 C 7.99908447265625 205.1121520996094 4.46533203125 214.1937255859375 1.7353515625 223.9423217773438 C -3.92718505859375 244.1631469726562 -5.86614990234375 266.6613159179688 -4.19256591796875 292.7225646972656 C -3.68365478515625 300.646728515625 -2.82659912109375 308.5034790039062 -1.645263671875 316.0745849609375 C -0.47857666015625 323.5509643554688 1.037109375 330.958740234375 2.8597412109375 338.0921630859375 C 4.6591796875 345.1344604492188 6.8082275390625 352.1072387695312 9.2474365234375 358.816650390625 C 11.6549072265625 365.4389038085938 14.4124755859375 371.9906616210938 17.4437255859375 378.2899780273438 C 23.3848876953125 390.63671875 30.62750244140625 402.5331420898438 38.9700927734375 413.6488952636719 C 47.08306884765625 424.458740234375 56.4666748046875 434.8367309570312 66.86007690429688 444.4947204589844 C 76.95150756835938 453.8721313476562 88.28173828125 462.8372192382812 100.5362548828125 471.1409912109375 C 112.4106750488281 479.1872253417969 125.4914855957031 486.8419799804688 139.4154052734375 493.8924865722656 C 152.8745727539062 500.7076416015625 167.5074157714844 507.1537170410156 182.9075927734375 513.0515747070312 C 197.7505798339844 518.736083984375 213.735595703125 524.0756225585938 230.4186706542969 528.921875 C 245.3775024414062 533.2673950195312 261.2183227539062 536.65283203125 277.5010681152344 538.984130859375 C 294.4418334960938 541.40966796875 311.5123291015625 542.6394653320312 328.2384033203125 542.6394653320312 C 344.8770751953125 542.6394653320312 361.0556030273438 541.4151611328125 376.3244934082031 539.00048828125 C 392.5477294921875 536.4349975585938 407.8079833984375 532.5112915039062 421.6813354492188 527.3385009765625 C 436.4631652832031 521.8269653320312 449.833251953125 514.8323974609375 461.4203491210938 506.549072265625 C 467.4874267578125 502.2118835449219 473.16357421875 497.4475708007812 478.2911682128906 492.3884887695312 C 483.583740234375 487.1663818359375 488.4297485351562 481.4942321777344 492.6943969726562 475.5293884277344 C 496.3700866699219 470.3883972167969 499.7040100097656 464.9036560058594 502.6035766601562 459.2274780273438 C 505.580078125 453.4008178710938 508.179931640625 447.2138977050781 510.3309326171875 440.8384704589844 C 512.5382690429688 434.2958068847656 514.333251953125 427.3756408691406 515.6658935546875 420.2703247070312 C 517.0330810546875 412.9813842773438 517.9512329101562 405.2974853515625 518.3950805664062 397.431884765625 C 518.8499755859375 389.3674926757812 518.81884765625 380.8900756835938 518.30224609375 372.2349853515625 C 517.7730102539062 363.3666381835938 516.719482421875 354.0668334960938 515.1710815429688 344.5938110351562 C 513.5855712890625 334.893798828125 511.4371643066406 324.7435607910156 508.7855834960938 314.4248962402344 C 506.072265625 303.865966796875 502.756591796875 292.8374633789062 498.9307556152344 281.6458740234375 C 490.8275146484375 257.941650390625 482.632080078125 235.5261535644531 474.5719909667969 215.022216796875 C 466.385986328125 194.1977233886719 458.0749206542969 174.6713256835938 449.8696594238281 156.9854736328125 C 441.5559997558594 139.0656433105469 433.0850830078125 122.4623107910156 424.6924133300781 107.6366577148438 C 416.207763671875 92.64840698242188 407.5343322753906 79.0023193359375 398.9131469726562 67.07748413085938 C 390.2166748046875 55.04840087890625 381.3003540039062 44.39315795898438 372.4119262695312 35.40756225585938 C 363.465576171875 26.36346435546875 354.2685852050781 18.7288818359375 345.0763549804688 12.71588134765625 C 340.4619140625 9.6973876953125 335.74609375 7.020050048828125 331.0599365234375 4.758056640625 C 326.3644104003906 2.49163818359375 321.5626831054688 0.576568603515625 316.7879943847656 -0.93377685546875 C 312.0042419433594 -2.447021484375 307.1090087890625 -3.5980224609375 302.2380676269531 -4.354766845703125 C 297.3575134277344 -5.113006591796875 292.3597412109375 -5.497528076171875 287.3836669921875 -5.497528076171875 M 287.3836669921875 -6.497528076171875 C 368.283203125 -6.497528076171875 435.2260437011719 92.20016479492188 499.8770141601562 281.3223876953125 C 568.243408203125 481.3132019042969 447.3671264648438 543.6394653320312 328.2384643554688 543.6394653320312 C 293.863037109375 543.6394653320312 259.6357727050781 538.4506225585938 230.1396789550781 529.8822021484375 C 98.42425537109375 491.6199645996094 3.0709228515625 421.4299011230469 -5.19049072265625 292.7866516113281 C -13.45184326171875 164.1435546875 67.212158203125 131.9034729003906 193.3112487792969 32.8494873046875 C 226.8678588867188 6.48992919921875 258.048828125 -6.497528076171875 287.3836669921875 -6.497528076171875 Z" stroke="none" fill="#707070"/>
    </g>
    <g id="Elipse_288" data-name="Elipse 288" transform="translate(-4745.908 -1279.56)" fill="#fff" stroke="#707070" stroke-width="1">
      <ellipse cx="45.39" cy="40.374" rx="45.39" ry="40.374" stroke="none"/>
      <ellipse cx="45.39" cy="40.374" rx="44.89" ry="39.874" fill="none"/>
    </g>
    <g id="Elipse_289" data-name="Elipse 289" transform="translate(-4445.822 -1215.196)" fill="#fff" stroke="#707070" stroke-width="1">
      <ellipse cx="11.954" cy="11.118" rx="11.954" ry="11.118" stroke="none"/>
      <ellipse cx="11.954" cy="11.118" rx="11.454" ry="10.618" fill="none"/>
    </g>
  </g>
</svg>
