<?xml version="1.0" encoding="UTF-8"?>
<svg id="Capa_1" data-name="Capa 1" xmlns="http://www.w3.org/2000/svg" viewBox="0 0 225.17 103.76">
  <defs>
    <style>
      .cls-1 {
        fill: #f6a304;
      }

      .cls-1, .cls-2 {
        stroke-width: 0px;
      }

      .cls-2 {
        fill: #878787;
      }
    </style>
  </defs>
  <g>
    <polygon class="cls-1" points="104.98 103.76 93.24 66.85 107 25.15 118.68 25.15 104.44 65.49 118 103.76 104.98 103.76"/>
    <g>
      <polygon class="cls-1" points="80.47 18.74 76.74 7.86 81.19 7.86 84.77 18.74 80.47 18.74"/>
      <polygon class="cls-1" points="68.73 5.44 66.87 0 71.24 0 73.03 5.44 68.73 5.44"/>
      <polygon class="cls-1" points="83.75 48.33 81.03 40.57 84.37 40.57 82.58 36.09 79.45 36.09 70.67 11.13 74.27 11.13 81.12 30.42 84.47 30.42 82.09 23.47 83.83 23.47 83.84 23.49 86.33 23.49 94.95 49.69 83.21 86.72 70.19 86.72 83.75 48.33"/>
    </g>
  </g>
  <path class="cls-2" d="M131.83,58.26c.07,1.57-.44,2.94-1.54,4.09-1.1,1.15-2.44,1.73-4.03,1.73h-6.58v8.09h-3.05v-11.11h9.66c.69,0,1.29-.25,1.78-.74s.74-1.09.74-1.78-.25-1.29-.74-1.78-1.09-.74-1.78-.74h-9.66v-3.04h9.63c1.48,0,2.76.51,3.83,1.53,1.07,1.03,1.65,2.27,1.74,3.73v.03Z"/>
  <path class="cls-2" d="M148.57,72.17h-13.99v-19.2h3.05v16.16h10.95v3.04Z"/>
  <path class="cls-2" d="M160.2,52.48c1.37,0,2.68.26,3.92.79,1.25.53,2.32,1.25,3.23,2.15.9.91,1.62,1.98,2.15,3.23.53,1.24.79,2.55.79,3.92,0,1.83-.45,3.52-1.36,5.06-.9,1.55-2.13,2.77-3.68,3.67-1.55.91-3.23,1.36-5.06,1.36s-3.52-.45-5.07-1.36c-1.56-.9-2.78-2.13-3.68-3.67s-1.35-3.23-1.35-5.06.45-3.52,1.35-5.06,2.12-2.77,3.68-3.68c1.55-.9,3.25-1.36,5.07-1.36ZM165.11,67.48c1.35-1.35,2.03-2.99,2.03-4.91s-.68-3.56-2.03-4.91c-1.35-1.35-2.99-2.03-4.91-2.03s-3.56.68-4.91,2.03c-1.35,1.36-2.03,2.99-2.03,4.91s.68,3.56,2.03,4.91c1.35,1.36,2.99,2.03,4.91,2.03s3.56-.68,4.91-2.03Z"/>
  <path class="cls-2" d="M185.27,72.17l-5.05-8.09h-4.14v8.09h-3.05v-11.11h9.66c.69,0,1.29-.25,1.78-.74s.74-1.09.74-1.78-.25-1.29-.74-1.78-1.09-.74-1.78-.74h-9.66v-3.04h9.63c1.48,0,2.76.51,3.83,1.53,1.07,1.03,1.65,2.27,1.74,3.73v.03c.05,1.37-.35,2.6-1.19,3.69-.85,1.09-1.95,1.77-3.31,2.04l5.1,8.17h-3.57Z"/>
  <rect class="cls-1" x="191.58" y="52.97" width="14.82" height="3.04"/>
  <polygon class="cls-2" points="206.4 69.13 206.4 72.17 191.58 72.17 191.58 61.06 206.4 61.06 206.4 64.08 194.63 64.08 194.63 69.13 206.4 69.13"/>
  <path class="cls-2" d="M221.38,72.17l-5.05-8.09h-4.14v8.09h-3.05v-11.11h9.66c.69,0,1.29-.25,1.78-.74s.74-1.09.74-1.78-.25-1.29-.74-1.78-1.09-.74-1.78-.74h-9.66v-3.04h9.63c1.48,0,2.76.51,3.83,1.53,1.07,1.03,1.65,2.27,1.74,3.73v.03c.05,1.37-.35,2.6-1.19,3.69-.85,1.09-1.95,1.77-3.31,2.04l5.1,8.17h-3.57Z"/>
  <rect class="cls-1" y="42.12" width="14.82" height="3.05"/>
  <polygon class="cls-2" points="14.82 58.28 14.82 61.32 0 61.32 0 50.21 14.82 50.21 14.82 53.23 3.05 53.23 3.05 58.28 14.82 58.28"/>
  <path class="cls-2" d="M33.91,61.32l-1.97-4.61h-9.08l-1.95,4.61h-3.35l4.56-10.7h3.35l-1.26,2.96h6.42c-3.07-7.21-4.7-11.03-4.88-11.47h3.35l8.18,19.21h-3.35Z"/>
  <path class="cls-2" d="M53.89,43.87l-1.98,2.36c-1.48-1.22-3.05-1.78-4.72-1.67-.58.05-1.11.19-1.59.41-.44.2-.8.48-1.1.82-.42.51-.61,1.13-.58,1.87.06.29.19.57.4.82s.43.47.66.63c.23.17.56.33,1,.51.44.17.8.3,1.09.38.28.08.7.21,1.25.37.9.26,1.58.46,2.05.62s1.05.41,1.74.77c.69.36,1.21.74,1.53,1.14.33.4.61.94.83,1.61.22.67.29,1.44.22,2.32v.03c-.13.97-.49,1.84-1.1,2.61-.73.9-1.72,1.55-2.96,1.95-1.19.37-2.47.46-3.84.27-2.38-.29-4.64-1.3-6.78-3.02l1.92-2.39c1.68,1.34,3.42,2.11,5.21,2.33.95.13,1.8.07,2.55-.16.66-.2,1.15-.51,1.48-.93.24-.29.38-.63.44-1.02.02-.36-.05-.7-.21-1-.15-.3-.34-.55-.55-.74-.21-.19-.54-.38-.99-.58s-.82-.34-1.11-.44c-.3-.1-.73-.23-1.3-.4-.58-.17-1.01-.29-1.3-.38-.3-.09-.7-.23-1.22-.43-.52-.19-.93-.37-1.21-.53-.28-.17-.62-.38-1-.66s-.68-.56-.89-.87c-.21-.3-.41-.67-.59-1.1-.18-.43-.31-.89-.38-1.39v-.11c-.11-1.56.32-2.92,1.29-4.09.57-.68,1.28-1.22,2.14-1.62.84-.38,1.74-.61,2.69-.69.75-.05,1.51,0,2.27.14.77.15,1.56.41,2.36.78.8.37,1.56.86,2.28,1.47Z"/>
  <path class="cls-2" d="M64.15,46.4h-3.73l-2.97-4.28h3.71l2.99,4.28ZM70.81,42.12h3.71l-7,10.07v9.14h-3.05v-10.1l6.34-9.11Z"/>
  <g>
    <path class="cls-1" d="M117.08,79.99v-3.21h.22v2.99h1.8v.22h-2.03Z"/>
    <path class="cls-1" d="M124.37,76.01h.41l-.55.5h-.26l.41-.5ZM123.98,79.99v-3.21h.23v3.21h-.23Z"/>
    <path class="cls-1" d="M130.11,79.99h-.92v-3.21h.92c.23,0,.44.04.63.13s.36.2.5.36c.14.15.24.32.31.51.07.19.11.39.11.61s-.04.42-.11.61-.18.36-.31.51c-.14.16-.31.28-.5.36-.19.08-.41.13-.63.13ZM129.41,79.77h.7c.4,0,.72-.14.97-.42.12-.13.2-.27.26-.44s.09-.34.09-.53-.03-.36-.09-.53-.15-.31-.26-.44c-.25-.27-.58-.41-.97-.41h-.7v2.76Z"/>
    <path class="cls-1" d="M136.37,79.99v-3.21h2.08v.23h-1.86v1.27h1.45v.23h-1.45v1.26h1.86v.23h-2.08Z"/>
    <path class="cls-1" d="M145.15,79.99l-1.33-1.62h.4c.24,0,.44-.03.59-.09.11-.05.21-.13.29-.24s.12-.22.12-.35c0-.12-.03-.22-.1-.33s-.17-.19-.3-.25-.28-.1-.44-.1h-.9v2.99h-.22v-3.21h1.12c.15,0,.29.02.43.07s.25.12.35.21c.1.09.17.18.22.29.05.11.08.22.08.34,0,.18-.05.34-.16.49-.11.14-.24.25-.39.31-.1.05-.2.07-.3.09s-.2.02-.31.02l1.16,1.41h-.3Z"/>
    <path class="cls-1" d="M150.26,79.99v-3.21h2.08v.23h-1.86v1.27h1.45v.23h-1.45v1.26h1.86v.23h-2.08Z"/>
    <path class="cls-1" d="M159.14,78.75c.08.12.13.26.13.4,0,.12-.03.24-.09.35-.06.11-.14.21-.26.29-.23.16-.5.25-.81.25-.15,0-.3-.02-.43-.06-.14-.04-.26-.1-.37-.18-.19-.14-.3-.31-.34-.51l.21-.12c0,.18.1.33.27.45.09.07.19.12.3.15.11.03.24.05.37.05.26,0,.49-.07.67-.2.18-.13.26-.28.26-.46,0-.1-.03-.2-.1-.29-.06-.09-.15-.16-.27-.23-.11-.06-.3-.1-.58-.13-.02,0-.11-.02-.25-.04-.14-.02-.27-.06-.37-.11-.16-.08-.29-.18-.38-.31s-.14-.27-.14-.42c0-.12.03-.24.09-.34.06-.11.15-.2.26-.28.11-.08.23-.14.37-.18.14-.04.28-.06.43-.06.31,0,.58.08.81.25.19.14.3.31.34.5l-.21.12c0-.08-.03-.16-.07-.24s-.11-.14-.19-.21c-.09-.07-.19-.12-.31-.15-.12-.03-.24-.05-.36-.05s-.25.02-.36.05-.22.08-.3.15c-.09.06-.15.13-.2.21-.05.08-.07.16-.07.24,0,.1.04.2.11.3s.17.18.28.23c.07.03.14.06.23.07.08.01.19.03.32.05.02,0,.08.01.17.02.09.01.18.03.27.05.09.02.16.05.22.08.15.09.27.19.35.31Z"/>
    <path class="cls-1" d="M169.65,79.99v-3.21h2.08v.23h-1.86v1.27h1.45v.23h-1.45v1.26h1.86v.23h-2.08Z"/>
    <path class="cls-1" d="M176.76,77.38v2.61h-.22v-3.25l2.22,2.66v-2.62h.22v3.27l-2.22-2.67Z"/>
    <path class="cls-1" d="M190.68,79.49l1.22-2.71h.25l-1.46,3.27-1.46-3.27h.24l1.22,2.71Z"/>
    <path class="cls-1" d="M196.86,79.99v-3.21h.22v3.21h-.22Z"/>
    <path class="cls-1" d="M202.42,79.18l-.38.82h-.25l1.51-3.25,1.43,3.25h-.24l-.36-.82h-1.71ZM203.29,77.29l-.77,1.67h1.51l-.74-1.67Z"/>
    <path class="cls-1" d="M210.11,80.03c-.22,0-.42-.06-.6-.18-.18-.12-.33-.29-.43-.51l.2-.1c.09.18.21.32.35.42.14.1.31.15.48.15.29,0,.52-.11.7-.33.2-.24.3-.57.3-1v-1.7h.22v1.7c0,.48-.12.86-.35,1.15-.11.13-.24.23-.39.3-.15.07-.31.1-.49.1Z"/>
    <path class="cls-1" d="M216.17,79.99v-3.21h2.08v.23h-1.86v1.27h1.45v.23h-1.45v1.26h1.86v.23h-2.08Z"/>
    <path class="cls-1" d="M225.05,78.75c.08.12.13.26.13.4,0,.12-.03.24-.09.35-.06.11-.14.21-.26.29-.23.16-.5.25-.81.25-.15,0-.3-.02-.43-.06-.14-.04-.26-.1-.37-.18-.19-.14-.3-.31-.34-.51l.21-.12c.01.18.1.33.27.45.08.07.19.12.3.15.12.03.24.05.37.05.26,0,.49-.07.67-.2.18-.13.26-.28.26-.46,0-.1-.03-.2-.1-.29-.06-.09-.16-.16-.27-.23-.11-.06-.3-.1-.58-.13-.02,0-.11-.02-.25-.04s-.27-.06-.37-.11c-.16-.08-.29-.18-.38-.31-.09-.13-.14-.27-.14-.42,0-.12.03-.24.09-.34s.15-.2.26-.28c.11-.08.23-.14.37-.18.14-.04.28-.06.43-.06.31,0,.58.08.81.25.19.14.3.31.34.5l-.21.12c0-.08-.03-.16-.07-.24s-.11-.14-.19-.21c-.09-.07-.19-.12-.31-.15-.11-.03-.24-.05-.36-.05s-.24.02-.36.05c-.12.03-.22.08-.3.15-.09.06-.15.13-.2.21-.05.08-.07.16-.07.24,0,.1.04.2.11.3s.17.18.28.23c.07.03.15.06.23.07.08.01.19.03.32.05.02,0,.08.01.17.02.09.01.18.03.27.05.08.02.16.05.22.08.15.09.27.19.35.31Z"/>
  </g>
</svg>