<?xml version="1.0" encoding="UTF-8"?>
<svg id="Capa_1" data-name="Capa 1" xmlns="http://www.w3.org/2000/svg" viewBox="0 0 225.56 103.94">
  <defs>
    <style>
      .cls-1 {
        fill: #fff;
      }

      .cls-1, .cls-2 {
        stroke-width: 0px;
      }

      .cls-2 {
        fill: #f6a304;
      }
    </style>
  </defs>
  <g>
    <polygon class="cls-2" points="105.16 103.94 93.41 66.96 107.19 25.19 118.88 25.19 104.62 65.6 118.21 103.94 105.16 103.94"/>
    <g>
      <polygon class="cls-2" points="80.61 18.78 76.87 7.87 81.33 7.87 84.92 18.78 80.61 18.78"/>
      <polygon class="cls-2" points="68.85 5.45 66.98 0 71.36 0 73.16 5.45 68.85 5.45"/>
      <polygon class="cls-2" points="83.9 48.41 81.17 40.65 84.52 40.65 82.72 36.15 79.58 36.15 70.79 11.15 74.4 11.15 81.26 30.47 84.62 30.47 82.23 23.51 83.97 23.51 83.98 23.53 86.48 23.53 95.11 49.77 83.36 86.87 70.31 86.87 83.9 48.41"/>
    </g>
  </g>
  <path class="cls-1" d="M132.06,58.36c.07,1.58-.44,2.94-1.54,4.09-1.1,1.16-2.45,1.73-4.04,1.73h-6.59v8.11h-3.05v-11.13h9.68c.7,0,1.29-.25,1.79-.74s.74-1.09.74-1.79-.25-1.29-.74-1.79-1.09-.74-1.79-.74h-9.68v-3.05h9.65c1.48,0,2.76.51,3.83,1.54,1.07,1.03,1.65,2.27,1.75,3.74v.03Z"/>
  <path class="cls-1" d="M148.82,72.3h-14.02v-19.24h3.05v16.19h10.97v3.05Z"/>
  <path class="cls-1" d="M160.48,52.57c1.38,0,2.69.26,3.93.8,1.25.53,2.33,1.25,3.23,2.16.91.91,1.63,1.99,2.16,3.23.53,1.24.8,2.56.8,3.93,0,1.83-.45,3.52-1.36,5.07s-2.14,2.77-3.68,3.68c-1.55.91-3.24,1.36-5.07,1.36s-3.53-.45-5.08-1.36c-1.56-.91-2.79-2.13-3.68-3.68-.9-1.55-1.35-3.24-1.35-5.07s.45-3.52,1.35-5.07,2.13-2.77,3.68-3.68c1.55-.91,3.25-1.36,5.08-1.36ZM165.4,67.6c1.36-1.36,2.03-3,2.03-4.92s-.68-3.56-2.03-4.92c-1.36-1.36-3-2.03-4.92-2.03s-3.56.68-4.92,2.03c-1.36,1.36-2.03,3-2.03,4.92s.68,3.56,2.03,4.92c1.36,1.36,3,2.04,4.92,2.04s3.57-.68,4.92-2.04Z"/>
  <path class="cls-1" d="M185.59,72.3l-5.06-8.11h-4.15v8.11h-3.05v-11.13h9.68c.7,0,1.29-.25,1.79-.74s.74-1.09.74-1.79-.25-1.29-.74-1.79-1.09-.74-1.79-.74h-9.68v-3.05h9.65c1.48,0,2.76.51,3.83,1.54,1.07,1.03,1.65,2.27,1.75,3.74v.03c.05,1.37-.35,2.61-1.19,3.7-.85,1.09-1.96,1.77-3.31,2.05l5.11,8.19h-3.57Z"/>
  <rect class="cls-2" x="191.92" y="53.06" width="14.84" height="3.05"/>
  <polygon class="cls-1" points="206.76 69.25 206.76 72.3 191.92 72.3 191.92 61.17 206.76 61.17 206.76 64.19 194.97 64.19 194.97 69.25 206.76 69.25"/>
  <path class="cls-1" d="M221.76,72.3l-5.06-8.11h-4.15v8.11h-3.05v-11.13h9.68c.7,0,1.29-.25,1.79-.74s.74-1.09.74-1.79-.25-1.29-.74-1.79-1.09-.74-1.79-.74h-9.68v-3.05h9.65c1.48,0,2.76.51,3.83,1.54,1.07,1.03,1.65,2.27,1.75,3.74v.03c.05,1.37-.35,2.61-1.19,3.7-.85,1.09-1.96,1.77-3.31,2.05l5.11,8.19h-3.57Z"/>
  <rect class="cls-2" y="42.19" width="14.84" height="3.05"/>
  <polygon class="cls-1" points="14.84 58.38 14.84 61.43 0 61.43 0 50.3 14.84 50.3 14.84 53.32 3.05 53.32 3.05 58.38 14.84 58.38"/>
  <path class="cls-1" d="M33.97,61.43l-1.98-4.62h-9.1l-1.95,4.62h-3.36l4.56-10.72h3.35l-1.27,2.97h6.43c-3.08-7.22-4.71-11.05-4.89-11.49h3.35l8.19,19.24h-3.36Z"/>
  <path class="cls-1" d="M53.98,43.95l-1.98,2.36c-1.48-1.23-3.06-1.79-4.73-1.68-.58.05-1.12.19-1.59.41-.44.2-.81.48-1.1.82-.42.51-.61,1.14-.58,1.87.06.29.19.57.4.83s.43.47.66.63c.23.17.56.34,1,.51.44.17.8.3,1.09.39.28.08.7.21,1.25.37.9.26,1.58.46,2.05.62s1.05.41,1.74.77c.7.36,1.21.74,1.54,1.14.33.4.61.94.83,1.61.22.67.29,1.44.22,2.32v.03c-.13.97-.49,1.84-1.1,2.61-.73.9-1.72,1.55-2.97,1.95-1.19.37-2.47.46-3.85.27-2.38-.29-4.65-1.3-6.79-3.02l1.93-2.39c1.68,1.34,3.42,2.12,5.22,2.34.95.13,1.8.07,2.56-.16.66-.2,1.15-.51,1.48-.93.24-.29.39-.63.44-1.02.02-.37-.05-.7-.21-1-.15-.3-.34-.55-.55-.74-.21-.19-.54-.39-.99-.58s-.82-.34-1.11-.44c-.3-.1-.73-.23-1.31-.4-.58-.17-1.01-.29-1.31-.39-.3-.09-.7-.23-1.22-.43-.52-.19-.93-.37-1.21-.53-.29-.17-.62-.39-1.01-.66s-.68-.56-.89-.87c-.21-.3-.41-.67-.59-1.1-.18-.43-.31-.89-.39-1.39v-.11c-.11-1.56.32-2.92,1.29-4.1.57-.68,1.28-1.22,2.15-1.62.84-.39,1.74-.61,2.69-.69.75-.05,1.51,0,2.28.14.77.15,1.56.41,2.36.78.81.37,1.57.86,2.28,1.47Z"/>
  <path class="cls-1" d="M64.26,46.48h-3.74l-2.97-4.29h3.71l3,4.29ZM70.93,42.19h3.71l-7.01,10.09v9.15h-3.05v-10.11l6.35-9.12Z"/>
  <g>
    <path class="cls-1" d="M117.28,80.13v-3.22h.22v3h1.81v.22h-2.03Z"/>
    <path class="cls-1" d="M124.59,76.14h.41l-.55.5h-.26l.41-.5ZM124.19,80.13v-3.22h.23v3.22h-.23Z"/>
    <path class="cls-1" d="M130.33,80.13h-.93v-3.22h.93c.23,0,.44.04.63.13s.36.2.5.36c.13.15.24.32.31.51.07.19.11.4.11.61s-.04.42-.11.61c-.07.19-.18.36-.31.51-.14.16-.31.28-.5.36-.2.08-.41.13-.63.13ZM129.63,79.91h.7c.4,0,.73-.14.98-.42.12-.13.21-.27.27-.44s.09-.34.09-.53-.03-.36-.09-.53-.15-.31-.27-.44c-.25-.27-.58-.41-.98-.41h-.7v2.77Z"/>
    <path class="cls-1" d="M136.6,80.13v-3.22h2.08v.23h-1.86v1.27h1.45v.23h-1.45v1.26h1.86v.23h-2.08Z"/>
    <path class="cls-1" d="M145.4,80.13l-1.34-1.62h.4c.24,0,.44-.03.59-.09.11-.05.21-.13.29-.24s.12-.23.12-.35c0-.12-.03-.23-.1-.33s-.17-.19-.3-.25c-.13-.07-.28-.1-.44-.1h-.9v3h-.22v-3.22h1.12c.15,0,.29.02.42.07s.25.12.35.21c.1.09.17.18.22.29.05.11.08.22.08.34,0,.18-.05.34-.16.49-.11.14-.24.25-.39.31-.1.05-.2.07-.3.09s-.2.02-.31.02l1.17,1.41h-.3Z"/>
    <path class="cls-1" d="M150.52,80.13v-3.22h2.08v.23h-1.86v1.27h1.45v.23h-1.45v1.26h1.86v.23h-2.08Z"/>
    <path class="cls-1" d="M159.41,78.88c.08.12.13.26.13.4,0,.12-.03.24-.09.35-.06.11-.15.21-.26.29-.23.16-.5.25-.81.25-.15,0-.3-.02-.44-.07-.14-.04-.26-.1-.37-.18-.19-.14-.3-.31-.34-.51l.21-.12c0,.18.1.33.27.45.09.07.19.12.3.15.11.03.24.05.37.05.26,0,.49-.07.67-.2.18-.13.26-.28.26-.46,0-.1-.03-.2-.1-.29s-.15-.16-.27-.23c-.11-.06-.3-.1-.58-.13-.02,0-.11-.02-.25-.04s-.27-.06-.37-.11c-.16-.08-.29-.18-.38-.31-.09-.13-.14-.27-.14-.42,0-.12.03-.24.09-.34s.15-.2.26-.28c.11-.08.23-.14.37-.18.14-.04.28-.06.44-.06.31,0,.58.08.81.25.19.15.3.31.34.5l-.21.12c0-.08-.03-.16-.07-.24-.04-.08-.11-.15-.19-.21-.09-.07-.19-.12-.31-.15-.12-.03-.24-.05-.36-.05s-.25.02-.36.05-.22.08-.31.15c-.09.06-.15.13-.2.21-.05.08-.07.16-.07.24,0,.1.04.2.11.3s.17.18.28.24c.07.03.15.06.23.07.08.01.19.03.33.05.02,0,.08.01.17.02.09.01.18.03.27.05.09.02.16.05.22.08.15.09.27.19.35.31Z"/>
    <path class="cls-1" d="M169.95,80.13v-3.22h2.08v.23h-1.86v1.27h1.45v.23h-1.45v1.26h1.86v.23h-2.08Z"/>
    <path class="cls-1" d="M177.07,77.51v2.62h-.22v-3.26l2.23,2.66v-2.62h.22v3.27l-2.23-2.67Z"/>
    <path class="cls-1" d="M191.01,79.63l1.22-2.72h.25l-1.47,3.27-1.46-3.27h.24l1.22,2.72Z"/>
    <path class="cls-1" d="M197.2,80.13v-3.22h.22v3.22h-.22Z"/>
    <path class="cls-1" d="M202.77,79.31l-.38.82h-.25l1.51-3.26,1.43,3.26h-.24l-.36-.82h-1.71ZM203.65,77.42l-.77,1.67h1.51l-.74-1.67Z"/>
    <path class="cls-1" d="M210.48,80.16c-.22,0-.42-.06-.6-.19-.18-.12-.33-.29-.44-.51l.2-.1c.09.18.21.32.35.42.15.1.31.15.49.15.29,0,.52-.11.7-.33.2-.24.3-.57.3-1v-1.7h.22v1.7c0,.48-.12.86-.35,1.15-.11.13-.24.23-.39.3s-.31.1-.49.1Z"/>
    <path class="cls-1" d="M216.54,80.13v-3.22h2.08v.23h-1.86v1.27h1.45v.23h-1.45v1.26h1.86v.23h-2.08Z"/>
    <path class="cls-1" d="M225.44,78.88c.08.12.13.26.13.4,0,.12-.03.24-.09.35-.06.11-.15.21-.26.29-.23.16-.5.25-.81.25-.15,0-.3-.02-.44-.07-.14-.04-.26-.1-.37-.18-.19-.14-.3-.31-.34-.51l.21-.12c.01.18.1.33.27.45.08.07.19.12.3.15.12.03.24.05.37.05.26,0,.49-.07.67-.2.18-.13.26-.28.26-.46,0-.1-.03-.2-.1-.29-.07-.09-.16-.16-.27-.23-.11-.06-.3-.1-.59-.13-.02,0-.11-.02-.25-.04s-.27-.06-.37-.11c-.16-.08-.29-.18-.38-.31-.09-.13-.14-.27-.14-.42,0-.12.03-.24.09-.34s.15-.2.26-.28c.11-.08.23-.14.37-.18.14-.04.28-.06.44-.06.31,0,.58.08.81.25.19.15.3.31.34.5l-.21.12c0-.08-.03-.16-.07-.24s-.11-.15-.19-.21c-.09-.07-.19-.12-.31-.15-.11-.03-.24-.05-.36-.05s-.24.02-.36.05c-.12.03-.22.08-.3.15-.09.06-.15.13-.2.21-.05.08-.07.16-.07.24,0,.1.04.2.11.3s.17.18.28.24c.07.03.15.06.23.07.08.01.19.03.32.05.02,0,.08.01.17.02.09.01.18.03.27.05.08.02.16.05.22.08.15.09.27.19.36.31Z"/>
  </g>
</svg>