<?xml version="1.0" encoding="UTF-8"?>
<svg id="OBJECTS" xmlns="http://www.w3.org/2000/svg" xmlns:xlink="http://www.w3.org/1999/xlink" viewBox="0 0 1326.28 877.44">
  <defs>
    <style>
      .cls-1 {
        fill: url(#Degradado_sin_nombre_12);
      }

      .cls-1, .cls-2, .cls-3, .cls-4, .cls-5, .cls-6, .cls-7, .cls-8, .cls-9, .cls-10, .cls-11, .cls-12, .cls-13, .cls-14 {
        stroke-width: 0px;
      }

      .cls-15 {
        stroke-dasharray: 0 0 10.2 10.2;
      }

      .cls-15, .cls-16, .cls-17, .cls-18, .cls-19, .cls-20, .cls-21, .cls-22, .cls-23 {
        fill: none;
      }

      .cls-15, .cls-19, .cls-21, .cls-22 {
        stroke-linejoin: round;
      }

      .cls-15, .cls-19, .cls-21, .cls-22, .cls-24 {
        stroke-linecap: round;
      }

      .cls-15, .cls-19, .cls-22 {
        stroke: #000;
        stroke-width: 1.72px;
      }

      .cls-16 {
        stroke-width: 3.39px;
      }

      .cls-16, .cls-17, .cls-25, .cls-18, .cls-26, .cls-20, .cls-23 {
        stroke: #222221;
      }

      .cls-16, .cls-17, .cls-25, .cls-18, .cls-26, .cls-20, .cls-23, .cls-24 {
        stroke-miterlimit: 10;
      }

      .cls-2 {
        fill: url(#Degradado_sin_nombre_14);
      }

      .cls-17 {
        stroke-width: 1.81px;
      }

      .cls-3 {
        fill: #000;
      }

      .cls-25 {
        stroke-width: 1.48px;
      }

      .cls-25, .cls-26, .cls-12 {
        fill: #fff;
      }

      .cls-18, .cls-26 {
        stroke-width: 1.67px;
      }

      .cls-4 {
        fill: url(#Degradado_sin_nombre_14-2);
      }

      .cls-5 {
        fill: #e0ddf4;
      }

      .cls-20 {
        stroke-width: 2.42px;
      }

      .cls-6 {
        fill: url(#Degradado_sin_nombre_16);
      }

      .cls-7, .cls-24 {
        fill: #f5efe8;
      }

      .cls-21 {
        stroke: #fff;
        stroke-dasharray: 0 0 19.25 19.25;
        stroke-width: 1.5px;
      }

      .cls-8 {
        fill: #aad0ff;
      }

      .cls-9 {
        fill: #f0a100;
      }

      .cls-22 {
        stroke-dasharray: 0 0 10.35 10.35;
      }

      .cls-10 {
        fill: #5189fe;
      }

      .cls-23 {
        stroke-width: 1.84px;
      }

      .cls-24 {
        stroke: #f5efe8;
        stroke-width: 1.51px;
      }

      .cls-11 {
        fill: #c8b7fa;
      }

      .cls-13 {
        fill: #f48ebe;
      }

      .cls-14 {
        fill: url(#Degradado_sin_nombre_16-2);
      }
    </style>
    <linearGradient id="Degradado_sin_nombre_14" data-name="Degradado sin nombre 14" x1="615.67" y1="385.46" x2="890.17" y2="860.91" gradientUnits="userSpaceOnUse">
      <stop offset="0" stop-color="#f0a100"/>
      <stop offset="1" stop-color="#f48ebe"/>
    </linearGradient>
    <linearGradient id="Degradado_sin_nombre_16" data-name="Degradado sin nombre 16" x1="678.7" y1="829.09" x2="823.62" y2="578.08" gradientUnits="userSpaceOnUse">
      <stop offset="0" stop-color="#c8b7fa"/>
      <stop offset=".09" stop-color="#c9b6f2"/>
      <stop offset=".22" stop-color="#ccb4df"/>
      <stop offset=".37" stop-color="#d1b1bf"/>
      <stop offset=".55" stop-color="#d8ad92"/>
      <stop offset=".74" stop-color="#e1a859"/>
      <stop offset=".94" stop-color="#eca215"/>
      <stop offset="1" stop-color="#f0a100"/>
    </linearGradient>
    <linearGradient id="Degradado_sin_nombre_14-2" data-name="Degradado sin nombre 14" x1="554.97" y1="450.28" x2="951.84" y2="450.28" xlink:href="#Degradado_sin_nombre_14"/>
    <linearGradient id="Degradado_sin_nombre_16-2" data-name="Degradado sin nombre 16" x1="690.42" y1="775.86" x2="814.99" y2="560.09" xlink:href="#Degradado_sin_nombre_16"/>
    <linearGradient id="Degradado_sin_nombre_12" data-name="Degradado sin nombre 12" x1="305.5" y1="563.58" x2="458.59" y2="563.58" gradientUnits="userSpaceOnUse">
      <stop offset="0" stop-color="#aad0ff"/>
      <stop offset="1" stop-color="#5189fe"/>
    </linearGradient>
  </defs>
  <g>
    <path class="cls-5" d="M1266.79,496.16c-6.93,0-13.46,1.66-19.25,4.58-8.34-23.54-30.78-40.4-57.18-40.4-23.83,0-44.43,13.75-54.35,33.73-5.55-2.4-11.67-3.74-18.1-3.74-20.73,0-38.23,13.82-43.79,32.75h232.38c-6.29-15.77-21.69-26.93-39.71-26.93Z"/>
    <path class="cls-5" d="M192.67,35.82c-6.93,0-13.46,1.66-19.25,4.58C165.09,16.87,142.64,0,116.25,0c-23.83,0-44.43,13.75-54.35,33.73-5.55-2.4-11.67-3.74-18.1-3.74C23.06,30,5.57,43.82,0,62.75h232.38c-6.29-15.77-21.69-26.93-39.71-26.93Z"/>
    <path class="cls-5" d="M468.57,310.91c-8.36,0-16.36,1.54-23.75,4.34-14.57-30.81-45.93-52.13-82.27-52.13-33.08,0-62.03,17.66-77.95,44.06-4-.72-8.12-1.11-12.33-1.11-30.08,0-55.69,19.11-65.37,45.86h323.5c-10.17-24.1-34.02-41.01-61.83-41.01Z"/>
    <path class="cls-5" d="M208.03,756.22c-5.84,0-11.43,1.08-16.59,3.03-10.18-21.53-32.09-36.43-57.49-36.43-23.11,0-43.34,12.34-54.47,30.79-2.8-.5-5.67-.78-8.61-.78-21.02,0-38.92,13.36-45.68,32.04h226.05c-7.11-16.84-23.78-28.66-43.2-28.66Z"/>
    <path class="cls-5" d="M908.78,182.32c-5.08,0-9.94.94-14.43,2.64-8.85-18.72-27.91-31.67-49.99-31.67-20.1,0-37.69,10.73-47.36,26.77-2.43-.44-4.93-.68-7.49-.68-18.28,0-33.84,11.61-39.72,27.86h196.56c-6.18-14.64-20.67-24.92-37.57-24.92Z"/>
    <path class="cls-5" d="M1281.3,79.62c-4.01,0-7.85.74-11.39,2.08-6.99-14.78-22.03-25-39.46-25-15.86,0-29.75,8.47-37.38,21.13-1.92-.34-3.89-.53-5.91-.53-14.43,0-26.71,9.17-31.35,21.99h155.14c-4.88-11.56-16.32-19.67-29.65-19.67Z"/>
  </g>
  <path class="cls-21" d="M432.22,844.45c-75.63-13.76-173.24-90.89-206.11-180.23-19.37-52.64-9.57-144.76,11-197,25.97-65.96,97.45-113.97,172.68-115.98,75.23-2.01,149.52,42.1,179.49,106.57,12.28,26.42,17.4,56.96,7.12,84.11-10.28,27.15-38.51,49.34-69.32,48.13-26.53-1.04-49.87-18.75-62.64-40.49-12.78-21.74-16.61-47.02-18.32-71.77-5.54-79.97,9.39-162.11,50.24-232.58,40.85-70.48,108.72-128.42,190.31-153.23,81.59-24.81,176.36-14.06,244.97,34.06,52.95,37.14,87.65,93.22,109.03,151.75,21.09,57.75,30.45,120.28,18.15,180.21-12.31,59.93-47.84,116.94-102.68,150.11-24.92,15.07-60.4,24.04-82.48,5.51-14.83-12.45-17.9-33.78-12.55-51.72,5.36-17.94,17.68-33.26,30.08-47.85,47.15-55.47,108.35-96.69,183.97-102.11,60.98-4.37,123.13,13.73,157.52,56.83,104.19,130.6,13.23,370.13-32.55,382.63"/>
  <g id="EokbX0">
    <path class="cls-12" d="M218.59,554.58c-.7,1.27-1.33,2.52-2.06,3.71-.56.92-1.17,1.84-1.92,2.64-.42.45-1.17.91-1.74.88-.86-.05-.99-.95-1.08-1.62-.13-1.03-.21-2.07-.2-3.1.02-1.38.15-2.76.24-4.23-.95-.04-1.89-.08-2.84-.12-4.69-.16-9.39-.32-14.08-.49-1.38-.05-1.57-.32-1.1-1.56.4-1.06.75-2.15,1.23-3.17.2-.42.64-.87,1.08-1.03,5.32-1.87,10.65-3.71,16-5.5.89-.3,1.36-.69,1.59-1.61,1.83-7.4,3.74-14.78,5.63-22.17.09-.36.17-.72.27-1.17-2.56-.09-5.05-.19-7.54-.27-12.17-.43-24.33-.85-36.5-1.28-1.51-.05-1.69-.31-1.14-1.64.64-1.56,1.32-3.12,1.93-4.69.23-.58.6-.85,1.24-1.01,15.44-3.81,30.87-7.63,46.3-11.44.7-.17,1.05-.43,1.23-1.13,1.38-5.57,2.74-11.15,4.27-16.68.96-3.48,2.63-6.68,5.62-9.09,3.31-2.68,7.57-1.62,9.01,2.23,1.28,3.43,1.03,6.93.01,10.32-1.68,5.62-3.59,11.17-5.44,16.75-.19.58-.08.93.36,1.35,11.22,10.53,22.43,21.07,33.66,31.59.63.59.89,1.13.7,1.98-.35,1.58-.57,3.19-.84,4.79-.21,1.22-.57,1.39-1.72.82-7.55-3.78-15.09-7.56-22.64-11.33-5.2-2.61-10.4-5.21-15.61-7.82-.22-.11-.44-.21-.75-.35-.12.36-.24.68-.35,1-2.42,7.4-4.82,14.81-7.26,22.2-.21.63-.13,1.05.32,1.55,3.65,4.1,7.27,8.24,10.92,12.34.55.61.75,1.18.54,1.97-.27.98-.42,1.98-.63,2.97-.28,1.35-.57,1.48-1.84.84-4.68-2.35-9.37-4.69-14.06-7.04-.27-.13-.55-.26-.84-.4Z"/>
  </g>
  <g id="EokbX0-2" data-name="EokbX0">
    <path class="cls-12" d="M941.92,128.33c1.12.96,2.24,1.87,3.28,2.84.8.75,1.59,1.55,2.21,2.43.35.5.63,1.29.45,1.8-.28.76-1.24.64-1.96.54-1.1-.15-2.19-.36-3.25-.65-1.42-.39-2.81-.87-4.3-1.34-.29.84-.59,1.68-.88,2.53-1.42,4.18-2.84,8.36-4.26,12.54-.42,1.23-.75,1.33-1.9.58-.99-.64-2.02-1.24-2.95-1.96-.38-.29-.73-.81-.77-1.25-.51-5.29-.99-10.58-1.41-15.87-.07-.88-.35-1.41-1.24-1.86-7.15-3.62-14.26-7.31-21.38-10.98-.35-.18-.7-.34-1.13-.56-.78,2.28-1.54,4.5-2.29,6.72-3.68,10.84-7.37,21.67-11.05,32.51-.46,1.34-.77,1.44-1.99.59-1.44-1-2.86-2.02-4.32-2.99-.54-.36-.72-.77-.71-1.38.19-14.91.35-29.82.54-44.73,0-.68-.16-1.06-.84-1.41-5.38-2.73-10.78-5.43-16.08-8.29-3.33-1.79-6.19-4.15-7.88-7.48-1.88-3.7.35-7.25,4.7-7.51,3.88-.24,7.42.92,10.66,2.74,5.35,3.01,10.57,6.21,15.83,9.36.55.33.94.32,1.49.03,13.86-7.3,27.72-14.57,41.58-21.87.77-.41,1.41-.5,2.23-.11,1.54.74,3.14,1.36,4.71,2.04,1.2.52,1.28.89.38,1.76-5.91,5.79-11.82,11.57-17.73,17.35-4.08,3.99-8.15,7.98-12.23,11.96-.17.17-.33.34-.56.58.34.21.63.4.94.58,7,4.15,14,8.29,20.98,12.46.59.35,1.05.4,1.69.13,5.21-2.19,10.44-4.34,15.65-6.54.78-.33,1.42-.36,2.17.04.94.5,1.93.91,2.9,1.36,1.32.61,1.37.91.38,1.88-3.67,3.59-7.34,7.18-11.01,10.77-.21.21-.41.42-.63.65Z"/>
  </g>
  <line class="cls-16" x1="283.84" y1="834.73" x2="1326.28" y2="834.73"/>
  <g>
    <g>
      <path class="cls-26" d="M450.23,93.1v119.6c0,18.85,15.28,34.13,34.13,34.13h201.19c18.85,0,34.13-15.28,34.13-34.13v-119.6h-269.45Z"/>
      <path class="cls-9" d="M719.68,92.81c0-18.85-15.28-34.13-34.13-34.13h-201.19c-18.85,0-34.13,15.28-34.13,34.13v.29h269.45v-.29Z"/>
      <path class="cls-23" d="M719.68,92.81c0-18.85-15.28-34.13-34.13-34.13h-201.19c-18.85,0-34.13,15.28-34.13,34.13v.29h269.45v-.29Z"/>
      <path class="cls-18" d="M719.68,92.81c0-18.85-15.28-34.13-34.13-34.13h-201.19c-18.85,0-34.13,15.28-34.13,34.13v.29h269.45v-.29Z"/>
      <path class="cls-26" d="M476.84,71.67c3.07-3.07,8.04-3.07,11.1,0,3.07,3.07,3.07,8.04,0,11.1-3.07,3.07-8.04,3.07-11.1,0s-3.07-8.04,0-11.1Z"/>
      <path class="cls-26" d="M503.04,71.67c3.07-3.07,8.04-3.07,11.1,0s3.07,8.04,0,11.1-8.04,3.07-11.1,0c-3.07-3.07-3.07-8.04,0-11.1Z"/>
      <path class="cls-26" d="M529.24,71.67c3.07-3.07,8.04-3.07,11.1,0s3.07,8.04,0,11.1-8.04,3.07-11.1,0c-3.07-3.07-3.07-8.04,0-11.1Z"/>
      <rect class="cls-26" x="474.32" y="103.42" width="128.49" height="125.05" rx="9.93" ry="9.93"/>
    </g>
    <rect class="cls-8" x="617.11" y="115.61" width="84.21" height="16.78"/>
    <rect class="cls-8" x="617.11" y="140.7" width="84.21" height="16.78"/>
    <rect class="cls-8" x="617.11" y="165.78" width="84.21" height="16.78"/>
    <rect class="cls-11" x="679.67" y="192.6" width="18.21" height="11.9"/>
    <polyline class="cls-8" points="617.11 157.48 617.11 140.7 701.32 140.7"/>
    <polyline class="cls-8" points="701.32 182.56 617.11 182.56 617.11 165.78"/>
    <rect class="cls-11" x="679.67" y="192.6" width="18.21" height="11.9"/>
    <rect class="cls-18" x="617.11" y="115.61" width="84.21" height="16.78"/>
    <rect class="cls-18" x="617.11" y="140.7" width="84.21" height="16.78"/>
    <rect class="cls-18" x="617.11" y="165.78" width="84.21" height="16.78"/>
    <rect class="cls-18" x="679.67" y="192.6" width="18.21" height="11.9"/>
    <line class="cls-18" x1="617.11" y1="115.61" x2="701.32" y2="115.61"/>
    <polyline class="cls-18" points="617.11 157.48 617.11 140.7 701.32 140.7"/>
    <polyline class="cls-18" points="701.32 182.56 617.11 182.56 617.11 165.78"/>
    <rect class="cls-18" x="679.67" y="192.6" width="18.21" height="11.9"/>
    <g>
      <polygon class="cls-13" points="568.05 124.36 506.1 124.36 487.51 161.36 549.46 161.36 568.05 124.36"/>
      <polygon class="cls-18" points="568.05 124.36 506.1 124.36 487.51 161.36 549.46 161.36 568.05 124.36"/>
      <rect class="cls-25" x="487.51" y="161.36" width="61.95" height="53.35"/>
      <polygon class="cls-25" points="568.05 124.36 549.46 161.36 549.46 214.7 592.48 214.7 592.48 157.91 568.05 124.36"/>
    </g>
  </g>
  <g>
    <path class="cls-13" d="M553.3,297.3s-156.07,269.25,46.55,484.22l5.33-112.17s-88.69-171.35,19.17-356.22c7.96-13.64-6.76-29.81-22.66-26.36l-48.38,10.52Z"/>
    <path class="cls-13" d="M553.3,297.3l48.92,181.89,66.3-51.58-20.06-120.22c-2.68-16.05-18.95-26.65-35.4-23.08l-59.75,12.99Z"/>
    <path class="cls-13" d="M959.97,298.33s156.07,269.25-46.55,484.22l-5.33-112.17s88.69-171.35-19.17-356.22c-7.96-13.64,6.76-29.81,22.66-26.36l48.38,10.52Z"/>
    <path class="cls-23" d="M553.3,297.3s-156.07,269.25,46.55,484.22l5.33-112.17s-88.69-171.35,19.17-356.22c7.96-13.64-6.76-29.81-22.66-26.36l-48.38,10.52Z"/>
    <path class="cls-23" d="M959.97,298.33s156.07,269.25-46.55,484.22l-5.33-112.17s88.69-171.35-19.17-356.22c-7.96-13.64,6.76-29.81,22.66-26.36l48.38,10.52Z"/>
    <path class="cls-13" d="M959.97,298.33l-48.92,181.89-66.3-51.58,20.06-120.22c2.68-16.05,18.95-26.65,35.4-23.08l59.75,12.99Z"/>
    <path class="cls-23" d="M553.3,297.3l48.92,181.89,66.3-51.58-20.06-120.22c-2.68-16.05-18.95-26.65-35.4-23.08l-59.75,12.99Z"/>
    <path class="cls-23" d="M959.97,298.33l-48.92,181.89-66.3-51.58,20.06-120.22c2.68-16.05,18.95-26.65,35.4-23.08l59.75,12.99Z"/>
    <g>
      <path class="cls-3" d="M755.29,267.73c-43.84,0-79.37,35.54-79.37,79.37s35.54,79.37,79.37,79.37,79.37-35.54,79.37-79.37-35.54-79.37-79.37-79.37ZM755.29,396.72c-27.41,0-49.62-22.21-49.62-49.62s22.22-49.62,49.62-49.62,49.62,22.22,49.62,49.62-22.22,49.62-49.62,49.62Z"/>
      <path class="cls-2" d="M871.29,857.36h-232c-52.27,0-93.06-42.29-91.14-93.6l11.3-302.08c1.69-45.04,41.81-81,89.66-81h212.35c47.84,0,87.97,35.95,89.66,81l11.3,302.08c1.92,51.3-38.87,93.6-91.14,93.6Z"/>
      <path class="cls-23" d="M871.29,857.36h-232c-52.27,0-93.06-42.29-91.14-93.6l11.3-302.08c1.69-45.04,41.81-81,89.66-81h212.35c47.84,0,87.97,35.95,89.66,81l11.3,302.08c1.92,51.3-38.87,93.6-91.14,93.6Z"/>
      <path class="cls-6" d="M593.85,631.84l-3.55,99.16c-1.53,42.69,30.96,77.88,72.6,77.88h184.8c41.64,0,74.13-35.19,72.6-77.88l-3.55-99.16h-322.89Z"/>
      <path class="cls-23" d="M593.85,631.84l-3.55,99.16c-1.53,42.69,30.96,77.88,72.6,77.88h184.8c41.64,0,74.13-35.19,72.6-77.88l-3.55-99.16h-322.89Z"/>
      <path class="cls-4" d="M602.99,331.98h300.82c26.51,0,48.03,21.52,48.03,48.03v100.45c0,48.63-39.48,88.12-88.12,88.12h-220.64c-48.63,0-88.12-39.48-88.12-88.12v-100.45c0-26.51,21.52-48.03,48.03-48.03Z"/>
      <path class="cls-23" d="M602.99,331.98h300.82c26.51,0,48.03,21.52,48.03,48.03v100.45c0,48.63-39.48,88.12-88.12,88.12h-220.64c-48.63,0-88.12-39.48-88.12-88.12v-100.45c0-26.51,21.52-48.03,48.03-48.03Z"/>
      <path class="cls-14" d="M614.25,611.39h280.63c18.43,0,33.39,14.96,33.39,33.39v32.44c0,33.82-27.45,61.27-61.27,61.27h-224.88c-33.82,0-61.27-27.45-61.27-61.27v-32.44c0-18.43,14.96-33.39,33.39-33.39Z"/>
      <path class="cls-23" d="M614.25,611.39h280.63c18.43,0,33.39,14.96,33.39,33.39v32.44c0,33.82-27.45,61.27-61.27,61.27h-224.88c-33.82,0-61.27-27.45-61.27-61.27v-32.44c0-18.43,14.96-33.39,33.39-33.39Z"/>
    </g>
    <g>
      <rect class="cls-3" x="652.46" y="489.47" width="47.88" height="279.7"/>
      <rect class="cls-9" x="668.59" y="654.2" width="14.17" height="35.91"/>
      <path class="cls-9" d="M699.63,648.26h-47.89c-11.26,0-20.39,9.13-20.39,20.39v26c0,11.26,9.13,20.39,20.39,20.39h47.89c11.26,0,20.39-9.13,20.39-20.39v-26c0-11.26-9.13-20.39-20.39-20.39ZM704.42,690.19c0,6.51-6.07,11.79-13.57,11.79h-29.08c-7.49,0-13.57-5.28-13.57-11.79v-15.03c0-6.51,6.07-11.79,13.57-11.79h29.08c7.49,0,13.57,5.28,13.57,11.79v15.03Z"/>
      <path class="cls-23" d="M699.63,648.26h-47.89c-11.26,0-20.39,9.13-20.39,20.39v26c0,11.26,9.13,20.39,20.39,20.39h47.89c11.26,0,20.39-9.13,20.39-20.39v-26c0-11.26-9.13-20.39-20.39-20.39ZM704.42,690.19c0,6.51-6.07,11.79-13.57,11.79h-29.08c-7.49,0-13.57-5.28-13.57-11.79v-15.03c0-6.51,6.07-11.79,13.57-11.79h29.08c7.49,0,13.57,5.28,13.57,11.79v15.03Z"/>
      <g>
        <path class="cls-7" d="M692.78,531.14h-8.71c-.4,0-.73-.33-.73-.73s.33-.73.73-.73h7.98v-8.38c0-.4.33-.73.73-.73s.73.33.73.73v8.71c0,.07,0,.14-.03.2.02.06.03.12.03.2,0,.4-.33.73-.73.73ZM675.36,531.14h-8.71c-.4,0-.73-.33-.73-.73s.33-.73.73-.73h8.71c.4,0,.73.33.73.73s-.33.73-.73.73ZM660.02,529.07c-.4,0-.73-.33-.73-.73v-8.71c0-.4.33-.73.73-.73s.73.33.73.73v8.71c0,.4-.33.73-.73.73ZM692.78,513.33c-.4,0-.73-.33-.73-.73v-8.71c0-.4.33-.73.73-.73s.73.33.73.73v8.71c0,.4-.33.73-.73.73ZM660.02,511.65c-.4,0-.73-.33-.73-.73v-8.71c0-.4.33-.73.73-.73s.73.33.73.73v8.71c0,.4-.33.73-.73.73ZM690.3,498.38h-8.71c-.4,0-.73-.33-.73-.73s.33-.73.73-.73h8.71c.4,0,.73.33.73.73s-.33.73-.73.73ZM672.88,498.38h-8.71c-.4,0-.73-.33-.73-.73s.33-.73.73-.73h8.71c.4,0,.73.33.73.73s-.33.73-.73.73Z"/>
        <path class="cls-7" d="M690.81,529.18c-.18,0-.37-.07-.52-.21l-6.16-6.16c-.28-.29-.28-.75,0-1.03.29-.27.75-.27,1.03,0l6.16,6.16c.28.29.28.75,0,1.03-.14.14-.33.21-.52.21ZM678.5,516.86c-.18,0-.37-.07-.52-.21l-6.16-6.16c-.28-.29-.28-.75,0-1.03.29-.27.75-.27,1.03,0l6.16,6.16c.28.29.28.75,0,1.03-.14.14-.33.21-.52.21ZM666.18,504.54c-.18,0-.37-.07-.52-.21l-6.16-6.16c-.28-.29-.28-.75,0-1.03.29-.27.75-.27,1.03,0l6.16,6.16c.28.29.28.75,0,1.03-.14.14-.33.21-.52.21Z"/>
        <path class="cls-7" d="M661.99,529.18c-.18,0-.37-.07-.52-.21-.28-.29-.28-.75,0-1.03l6.16-6.16c.29-.27.75-.27,1.03,0,.28.29.28.75,0,1.03l-6.16,6.16c-.14.14-.33.21-.52.21ZM674.3,516.86c-.18,0-.37-.07-.52-.21-.28-.29-.28-.75,0-1.03l6.16-6.16c.29-.27.75-.27,1.03,0,.28.29.28.75,0,1.03l-6.16,6.16c-.14.14-.33.21-.52.21ZM686.62,504.54c-.18,0-.37-.07-.52-.21-.28-.29-.28-.75,0-1.03l6.16-6.16c.29-.27.75-.27,1.03,0,.28.29.28.75,0,1.03l-6.16,6.16c-.14.14-.33.21-.52.21Z"/>
      </g>
      <g>
        <path class="cls-7" d="M692.78,761.71h-8.71c-.4,0-.73-.33-.73-.73s.33-.73.73-.73h7.98v-8.38c0-.4.33-.73.73-.73s.73.33.73.73v8.71c0,.07,0,.14-.03.2.02.06.03.12.03.2,0,.4-.33.73-.73.73ZM675.36,761.71h-8.71c-.4,0-.73-.33-.73-.73s.33-.73.73-.73h8.71c.4,0,.73.33.73.73s-.33.73-.73.73ZM660.02,759.63c-.4,0-.73-.33-.73-.73v-8.71c0-.4.33-.73.73-.73s.73.33.73.73v8.71c0,.4-.33.73-.73.73ZM692.78,743.89c-.4,0-.73-.33-.73-.73v-8.71c0-.4.33-.73.73-.73s.73.33.73.73v8.71c0,.4-.33.73-.73.73ZM660.02,742.21c-.4,0-.73-.33-.73-.73v-8.71c0-.4.33-.73.73-.73s.73.33.73.73v8.71c0,.4-.33.73-.73.73ZM690.3,728.95h-8.71c-.4,0-.73-.33-.73-.73s.33-.73.73-.73h8.71c.4,0,.73.33.73.73s-.33.73-.73.73ZM672.88,728.95h-8.71c-.4,0-.73-.33-.73-.73s.33-.73.73-.73h8.71c.4,0,.73.33.73.73s-.33.73-.73.73Z"/>
        <path class="cls-7" d="M690.81,759.74c-.18,0-.37-.07-.52-.21l-6.16-6.16c-.28-.29-.28-.75,0-1.03.29-.27.75-.27,1.03,0l6.16,6.16c.28.29.28.75,0,1.03-.14.14-.33.21-.52.21ZM678.5,747.43c-.18,0-.37-.07-.52-.21l-6.16-6.16c-.28-.29-.28-.75,0-1.03.29-.27.75-.27,1.03,0l6.16,6.16c.28.29.28.75,0,1.03-.14.14-.33.21-.52.21ZM666.18,735.11c-.18,0-.37-.07-.52-.21l-6.16-6.16c-.28-.29-.28-.75,0-1.03.29-.27.75-.27,1.03,0l6.16,6.16c.28.29.28.75,0,1.03-.14.14-.33.21-.52.21Z"/>
        <path class="cls-7" d="M661.99,759.74c-.18,0-.37-.07-.52-.21-.28-.29-.28-.75,0-1.03l6.16-6.16c.29-.27.75-.27,1.03,0,.28.29.28.75,0,1.03l-6.16,6.16c-.14.14-.33.21-.52.21ZM674.3,747.43c-.18,0-.37-.07-.52-.21-.28-.29-.28-.75,0-1.03l6.16-6.16c.29-.27.75-.27,1.03,0,.28.29.28.75,0,1.03l-6.16,6.16c-.14.14-.33.21-.52.21ZM686.62,735.11c-.18,0-.37-.07-.52-.21-.28-.29-.28-.75,0-1.03l6.16-6.16c.29-.27.75-.27,1.03,0,.28.29.28.75,0,1.03l-6.16,6.16c-.14.14-.33.21-.52.21Z"/>
      </g>
    </g>
    <g>
      <rect class="cls-3" x="823.18" y="489.47" width="47.88" height="279.7"/>
      <rect class="cls-9" x="839.31" y="654.2" width="14.17" height="35.91"/>
      <path class="cls-9" d="M870.35,648.26h-47.89c-11.26,0-20.39,9.13-20.39,20.39v26c0,11.26,9.13,20.39,20.39,20.39h47.89c11.26,0,20.39-9.13,20.39-20.39v-26c0-11.26-9.13-20.39-20.39-20.39ZM875.14,690.19c0,6.51-6.07,11.79-13.57,11.79h-29.08c-7.49,0-13.57-5.28-13.57-11.79v-15.03c0-6.51,6.07-11.79,13.57-11.79h29.08c7.49,0,13.57,5.28,13.57,11.79v15.03Z"/>
      <path class="cls-23" d="M870.35,648.26h-47.89c-11.26,0-20.39,9.13-20.39,20.39v26c0,11.26,9.13,20.39,20.39,20.39h47.89c11.26,0,20.39-9.13,20.39-20.39v-26c0-11.26-9.13-20.39-20.39-20.39ZM875.14,690.19c0,6.51-6.07,11.79-13.57,11.79h-29.08c-7.49,0-13.57-5.28-13.57-11.79v-15.03c0-6.51,6.07-11.79,13.57-11.79h29.08c7.49,0,13.57,5.28,13.57,11.79v15.03Z"/>
      <g>
        <path class="cls-7" d="M863.5,531.14h-8.71c-.4,0-.73-.33-.73-.73s.33-.73.73-.73h7.98v-8.38c0-.4.33-.73.73-.73s.73.33.73.73v8.71c0,.07,0,.14-.03.2.02.06.03.12.03.2,0,.4-.33.73-.73.73ZM846.08,531.14h-8.71c-.4,0-.73-.33-.73-.73s.33-.73.73-.73h8.71c.4,0,.73.33.73.73s-.33.73-.73.73ZM830.74,529.07c-.4,0-.73-.33-.73-.73v-8.71c0-.4.33-.73.73-.73s.73.33.73.73v8.71c0,.4-.33.73-.73.73ZM863.5,513.33c-.4,0-.73-.33-.73-.73v-8.71c0-.4.33-.73.73-.73s.73.33.73.73v8.71c0,.4-.33.73-.73.73ZM830.74,511.65c-.4,0-.73-.33-.73-.73v-8.71c0-.4.33-.73.73-.73s.73.33.73.73v8.71c0,.4-.33.73-.73.73ZM861.02,498.38h-8.71c-.4,0-.73-.33-.73-.73s.33-.73.73-.73h8.71c.4,0,.73.33.73.73s-.33.73-.73.73ZM843.6,498.38h-8.71c-.4,0-.73-.33-.73-.73s.33-.73.73-.73h8.71c.4,0,.73.33.73.73s-.33.73-.73.73Z"/>
        <path class="cls-7" d="M861.53,529.18c-.18,0-.37-.07-.52-.21l-6.16-6.16c-.28-.29-.28-.75,0-1.03.29-.27.75-.27,1.03,0l6.16,6.16c.28.29.28.75,0,1.03-.14.14-.33.21-.52.21ZM849.22,516.86c-.18,0-.37-.07-.52-.21l-6.16-6.16c-.28-.29-.28-.75,0-1.03.29-.27.75-.27,1.03,0l6.16,6.16c.28.29.28.75,0,1.03-.14.14-.33.21-.52.21ZM836.9,504.54c-.18,0-.37-.07-.52-.21l-6.16-6.16c-.28-.29-.28-.75,0-1.03.29-.27.75-.27,1.03,0l6.16,6.16c.28.29.28.75,0,1.03-.14.14-.33.21-.52.21Z"/>
        <path class="cls-7" d="M832.71,529.18c-.18,0-.37-.07-.52-.21-.28-.29-.28-.75,0-1.03l6.16-6.16c.29-.27.75-.27,1.03,0,.28.29.28.75,0,1.03l-6.16,6.16c-.14.14-.33.21-.52.21ZM845.02,516.86c-.18,0-.37-.07-.52-.21-.28-.29-.28-.75,0-1.03l6.16-6.16c.29-.27.75-.27,1.03,0,.28.29.28.75,0,1.03l-6.16,6.16c-.14.14-.33.21-.52.21ZM857.34,504.54c-.18,0-.37-.07-.52-.21-.28-.29-.28-.75,0-1.03l6.16-6.16c.29-.27.75-.27,1.03,0,.28.29.28.75,0,1.03l-6.16,6.16c-.14.14-.33.21-.52.21Z"/>
      </g>
      <g>
        <path class="cls-7" d="M863.5,761.71h-8.71c-.4,0-.73-.33-.73-.73s.33-.73.73-.73h7.98v-8.38c0-.4.33-.73.73-.73s.73.33.73.73v8.71c0,.07,0,.14-.03.2.02.06.03.12.03.2,0,.4-.33.73-.73.73ZM846.08,761.71h-8.71c-.4,0-.73-.33-.73-.73s.33-.73.73-.73h8.71c.4,0,.73.33.73.73s-.33.73-.73.73ZM830.74,759.63c-.4,0-.73-.33-.73-.73v-8.71c0-.4.33-.73.73-.73s.73.33.73.73v8.71c0,.4-.33.73-.73.73ZM863.5,743.89c-.4,0-.73-.33-.73-.73v-8.71c0-.4.33-.73.73-.73s.73.33.73.73v8.71c0,.4-.33.73-.73.73ZM830.74,742.21c-.4,0-.73-.33-.73-.73v-8.71c0-.4.33-.73.73-.73s.73.33.73.73v8.71c0,.4-.33.73-.73.73ZM861.02,728.95h-8.71c-.4,0-.73-.33-.73-.73s.33-.73.73-.73h8.71c.4,0,.73.33.73.73s-.33.73-.73.73ZM843.6,728.95h-8.71c-.4,0-.73-.33-.73-.73s.33-.73.73-.73h8.71c.4,0,.73.33.73.73s-.33.73-.73.73Z"/>
        <path class="cls-7" d="M861.53,759.74c-.18,0-.37-.07-.52-.21l-6.16-6.16c-.28-.29-.28-.75,0-1.03.29-.27.75-.27,1.03,0l6.16,6.16c.28.29.28.75,0,1.03-.14.14-.33.21-.52.21ZM849.22,747.43c-.18,0-.37-.07-.52-.21l-6.16-6.16c-.28-.29-.28-.75,0-1.03.29-.27.75-.27,1.03,0l6.16,6.16c.28.29.28.75,0,1.03-.14.14-.33.21-.52.21ZM836.9,735.11c-.18,0-.37-.07-.52-.21l-6.16-6.16c-.28-.29-.28-.75,0-1.03.29-.27.75-.27,1.03,0l6.16,6.16c.28.29.28.75,0,1.03-.14.14-.33.21-.52.21Z"/>
        <path class="cls-7" d="M832.71,759.74c-.18,0-.37-.07-.52-.21-.28-.29-.28-.75,0-1.03l6.16-6.16c.29-.27.75-.27,1.03,0,.28.29.28.75,0,1.03l-6.16,6.16c-.14.14-.33.21-.52.21ZM845.02,747.43c-.18,0-.37-.07-.52-.21-.28-.29-.28-.75,0-1.03l6.16-6.16c.29-.27.75-.27,1.03,0,.28.29.28.75,0,1.03l-6.16,6.16c-.14.14-.33.21-.52.21ZM857.34,735.11c-.18,0-.37-.07-.52-.21-.28-.29-.28-.75,0-1.03l6.16-6.16c.29-.27.75-.27,1.03,0,.28.29.28.75,0,1.03l-6.16,6.16c-.14.14-.33.21-.52.21Z"/>
      </g>
    </g>
    <path class="cls-3" d="M809.22,425.71l-39.94-39.94c-6.69-6.69-17.52-6.69-24.21,0l-39.94,39.94c-6.68,6.68-6.68,17.52,0,24.21l39.94,39.94c6.68,6.69,17.52,6.69,24.21,0l39.94-39.94c6.69-6.69,6.69-17.52,0-24.21ZM748.75,449.59c0,4.19-3.4,7.6-7.6,7.6s-7.6-3.4-7.6-7.6v-23.55c0-4.19,3.4-7.6,7.6-7.6s7.6,3.4,7.6,7.6v23.55ZM780.81,449.59c0,4.19-3.4,7.6-7.6,7.6s-7.6-3.4-7.6-7.6v-23.55c0-4.19,3.4-7.6,7.6-7.6s7.6,3.4,7.6,7.6v23.55Z"/>
  </g>
  <g>
    <g>
      <path class="cls-8" d="M1148.23,726.39c-7.4,1.53-15.06,2.34-22.91,2.34-62.28,0-112.76-50.49-112.76-112.77,0-14.22,2.74-27.76,7.54-40.29l-3.56-1.77-105.29,32.95-1.24,50.49c49.44,4.39,88.31,45.33,89.48,95.64,8.92-2.66,18.36-4.14,28.15-4.14,47.31,0,86.8,33.41,96.22,77.91,15.91-11.06,35.21-17.58,56.05-17.58,13.78,0,26.88,2.85,38.79,7.97l1.32-47.43c-29.94-3.09-55.91-19.5-71.77-43.32Z"/>
      <path class="cls-11" d="M1125.32,728.73c7.85,0,15.51-.81,22.91-2.34,15.85,23.82,41.83,40.23,71.77,43.32l4.83-173.37-116.42,23.23-88.31-43.9c-4.8,12.53-7.54,26.07-7.54,40.29,0,62.28,50.49,112.77,112.76,112.77Z"/>
      <path class="cls-11" d="M1123.84,826.76c-9.42-44.5-48.91-77.91-96.22-77.91-9.79,0-19.22,1.48-28.15,4.14-1.17-50.31-40.04-91.25-89.48-95.64l-5.02,203.96,107.38-22.07,96.05,36.97,108.98-12.84,1.29-46.21c-11.91-5.11-25.01-7.97-38.79-7.97-20.84,0-40.14,6.52-56.05,17.58Z"/>
    </g>
    <polygon class="cls-20" points="911.24 606.85 1016.54 573.91 1108.41 619.58 1224.83 596.34 1217.39 863.36 1108.41 876.2 1012.36 839.23 904.98 861.3 911.24 606.85"/>
    <g>
      <line class="cls-19" x1="1016.54" y1="573.91" x2="1016.45" y2="579.08"/>
      <line class="cls-15" x1="1016.29" y1="589.28" x2="1012.52" y2="828.96"/>
      <line class="cls-19" x1="1012.44" y1="834.06" x2="1012.36" y2="839.23"/>
    </g>
    <line class="cls-22" x1="1108.41" y1="876.2" x2="1108.41" y2="619.58"/>
    <polyline class="cls-22" points="910.2 696.02 1015.49 663.07 1107.36 695.69 1221.16 672.86"/>
    <polyline class="cls-22" points="904.98 794.97 1013.4 777.25 1109.45 816.39 1220.12 790.3"/>
    <g id="rS0kes">
      <path class="cls-3" d="M1065.93,802.24c-4.34,4.69-11.77,4.69-16.11,0-16.83-18.24-32.3-36.98-42.02-59.85-12.7-29.88,6.33-63.93,39.32-70.98,35.64-7.61,68.93,22.89,64.18,59.03-1.55,11.78-7.6,21.83-13.8,31.67-9.05,14.38-19.79,27.39-31.57,40.12ZM1085.18,720.43c.02-15.57-11.5-27.39-26.75-27.47-15.41-.08-27.67,12.09-27.61,27.41.05,14.64,12.38,26.99,26.99,27.03,15.3.05,27.36-11.83,27.38-26.98Z"/>
    </g>
  </g>
  <g>
    <rect class="cls-3" x="454.71" y="680.49" width="100.83" height="61.44" rx="11.05" ry="11.05"/>
    <rect class="cls-9" x="466.54" y="690.13" width="75.69" height="37.19" rx="6.69" ry="6.69"/>
    <rect class="cls-3" x="372.93" y="717.73" width="262.53" height="141.51" rx="27.79" ry="27.79"/>
    <circle class="cls-10" cx="532.12" cy="789.41" r="69.82" transform="translate(-402.34 607.48) rotate(-45)"/>
    <circle class="cls-17" cx="532.12" cy="789.41" r="69.82" transform="translate(-402.34 607.48) rotate(-45)"/>
    <circle class="cls-11" cx="532.12" cy="789.41" r="51.84"/>
    <circle class="cls-17" cx="532.12" cy="789.41" r="51.84"/>
    <circle class="cls-3" cx="532.12" cy="789.41" r="39.85" transform="translate(-402.34 607.48) rotate(-45)"/>
    <rect class="cls-11" x="396.31" y="732.9" width="56.75" height="36.68" rx="12.16" ry="12.16"/>
    <rect class="cls-17" x="396.31" y="732.9" width="56.75" height="36.68" rx="12.16" ry="12.16"/>
    <rect class="cls-3" x="402.72" y="738.21" width="44.69" height="26.07" rx="9.1" ry="9.1"/>
    <line class="cls-24" x1="509.32" y1="793.13" x2="541.9" y2="763.81"/>
    <line class="cls-24" x1="535.38" y1="808.96" x2="555.4" y2="790.95"/>
    <line class="cls-24" x1="536.93" y1="790.46" x2="556.33" y2="772.65"/>
    <line class="cls-24" x1="516.76" y1="808.96" x2="528.92" y2="797.8"/>
  </g>
  <g>
    <path class="cls-1" d="M373.36,488.15c41.4-4.13,78.3,26.08,82.43,67.48,1.74,17.42-2.66,34-11.36,47.72l14.16,36.04-38.97-11.79c-9.26,5.58-19.83,9.32-31.31,10.46-41.4,4.13-78.31-26.08-82.43-67.48-4.13-41.4,26.08-78.3,67.48-82.43Z"/>
    <path class="cls-23" d="M373.36,488.15c41.4-4.13,78.3,26.08,82.43,67.48,1.74,17.42-2.66,34-11.36,47.72l14.16,36.04-38.97-11.79c-9.26,5.58-19.83,9.32-31.31,10.46-41.4,4.13-78.31-26.08-82.43-67.48-4.13-41.4,26.08-78.3,67.48-82.43Z"/>
    <g id="_1aaWZC" data-name="1aaWZC">
      <path class="cls-3" d="M380.29,545.55c4.17-3.94,8.71-7.11,14.36-8.33,11.21-2.42,21.47,4.92,22.97,16.32,1.19,9.02-2.03,16.66-7.3,23.61-6.71,8.84-15.75,14.74-25.25,20.18-3.54,2.03-6.27,1.96-9.76-.03-9.5-5.41-18.51-11.36-25.25-20.17-3.99-5.22-6.77-10.98-7.43-17.62-1-10.11,4.55-20.43,15.34-22.45,6.5-1.22,12.26.91,17.51,4.65,1.63,1.16,3.13,2.5,4.81,3.86Z"/>
    </g>
  </g>
</svg>